Coordinates
version=1
nRows=6
nColumns=107
inDegrees=yes

Units are S.I. units (second, meters, Newtons, ...)
If the header above contains a line with 'inDegrees', this indicates whether rotational values are in degrees (yes) or radians (no).

endheader
time	sternoclavicular_r2	sternoclavicular_r3	unrotscap_r3	unrotscap_r2	acromioclavicular_r2	acromioclavicular_r3	acromioclavicular_r1	unrothum_r1	unrothum_r3	unrothum_r2	elv_angle	shoulder_elv	shoulder1_r2	shoulder_rot	elbow_flexion	pro_sup	deviation	flexion	proximal_distal_r1	proximal_distal_r3	cmc_flexion	cmc_abduction	mp_flexion	ip_flexion	mcp2_flexion	mcp2_abduction	pm2_flexion	md2_flexion	mcp3_flexion	mcp3_abduction	pm3_flexion	md3_flexion	mcp4_flexion	mcp4_abduction	pm4_flexion	md4_flexion	mcp5_flexion	mcp5_abduction	pm5_flexion	md5_flexion	bicpt_tx	bicpt_ty	bicpt_tz	bicpt2_tx	bicpt2_ty	bicpt2_tz	ptpt_tx	ptpt_ty	ptpt_tz	FCUpt_tx	FCUpt_ty	FCUpt_tz	EDCpt_tx	EDCpt_ty	EDCpt_tz	APLpt_tx	APLpt_ty	APLpt_tz	FPLpt_tx	FPLpt_ty	FPLpt_tz	FPLpt2_tx	FPLpt2_ty	FPLpt2_tz	PEC1pt2_tx	PEC1pt2_ty	PEC1pt2_tz	PEC1pt3_tx	PEC1pt3_ty	PEC1pt3_tz	PEC2pt2_tx	PEC2pt2_ty	PEC2pt2_tz	PEC2pt3_tx	PEC2pt3_ty	PEC2pt3_tz	PEC3pt2_tx	PEC3pt2_ty	PEC3pt2_tz	PEC3pt3_tx	PEC3pt3_ty	PEC3pt3_tz	DELT2pt2a_tx	DELT2pt2a_ty	DELT2pt2a_tz	DELT2pt2_tx	DELT2pt2_ty	DELT2pt2_tz	LAT1pt2_tx	LAT1pt2_ty	LAT1pt2_tz	LAT1pt3_tx	LAT1pt3_ty	LAT1pt3_tz	LAT2pt2_tx	LAT2pt2_ty	LAT2pt2_tz	LAT2pt3_tx	LAT2pt3_ty	LAT2pt3_tz	LAT3pt2_tx	LAT3pt2_ty	LAT3pt2_tz	LAT3pt3_tx	LAT3pt3_ty	LAT3pt3_tz
      0.50000000	     -0.31891669	      0.13507806	     -0.13507806	      0.31891669	     -0.06457414	      0.52186550	      0.23457495	     -0.23457495	     -0.52186550	      0.06457414	    100.09258195	     75.50636021	     -1.74694511	    -28.87246255	     30.85099912	     57.69059932	      0.26477166	      0.28792475	      0.30195225	      0.14396237	     33.14431782	    -20.09246646	      5.18828945	     -2.96598295	     -8.44562030	     13.69550251	     11.65720813	    -15.34456766	    -16.82892384	      4.31424435	     13.56351952	     13.36456928	    -19.42545626	     -4.13357769	      8.85542660	     19.91020920	     -8.46417480	    -14.41239015	    -11.30284596	      5.04797665	      0.00092046	     -0.03113600	     -0.00486956	      0.01624965	     -0.01858083	     -0.00536224	      0.00328732	     -0.06765632	     -0.00469729	      0.00960958	     -0.18308265	     -0.00039422	     -0.00692286	      0.00214815	     -0.00006534	     -0.00036399	     -0.00014560	     -0.00072799	     -0.00046591	     -0.00139773	     -0.00078623	     -0.00001183	     -0.00021831	     -0.00026197	      0.00247493	      0.00868324	      0.00604051	     -0.00809597	      0.01954777	     -0.01854102	      0.00247493	      0.00868324	      0.00604051	      0.00054532	      0.01812154	     -0.00952220	      0.00392285	      0.00482864	      0.01590599	      0.00000000	      0.00762367	      0.00000000	     -0.00708921	     -0.03276140	     -0.00628517	      0.01837021	     -0.00071878	     -0.00695711	     -0.00088091	      0.01476570	     -0.00604051	      0.00243298	      0.02130959	     -0.01761817	     -0.00591467	      0.01279414	     -0.00541129	     -0.01233272	      0.02701452	     -0.03024452	     -0.02315530	      0.01430427	     -0.00725701	     -0.01535297	      0.03120932	     -0.03779516
      0.53333333	     -0.32084730	      0.13589577	     -0.13589577	      0.32084730	     -0.06496505	      0.52502470	      0.23599499	     -0.23599499	     -0.52502470	      0.06496505	     99.60999949	     75.96345064	     -1.73852246	    -26.37427665	     30.48536461	     53.68720974	      0.26510252	      0.24781656	      0.30225756	      0.12390828	     32.32490361	    -19.27263035	      4.74174022	     -3.58392867	     -6.95680007	     13.64469778	     11.64157220	    -16.88599670	    -16.24193917	      4.33740722	     13.30786045	     13.05689770	    -19.71943637	     -4.05512124	      9.15705532	     19.42481909	     -9.73194541	    -14.41696170	    -11.26261949	      5.06869847	      0.00090836	     -0.03109409	     -0.00486281	      0.01638574	     -0.01848150	     -0.00587760	      0.00358312	     -0.06746505	     -0.00437479	      0.00918715	     -0.18318375	     -0.00041306	     -0.00644245	      0.00196593	     -0.00000259	     -0.00030496	     -0.00012198	     -0.00060992	     -0.00039035	     -0.00117105	     -0.00065872	     -0.00001117	     -0.00022763	     -0.00027316	      0.00248992	      0.00873580	      0.00607708	     -0.00814498	      0.01966611	     -0.01865326	      0.00248992	      0.00873580	      0.00607708	      0.00054863	      0.01823124	     -0.00957984	      0.00394023	      0.00485787	      0.01594876	      0.00000000	      0.00771689	      0.00000000	     -0.00713213	     -0.03295973	     -0.00636258	      0.01718284	     -0.00063531	     -0.00581617	     -0.00088624	      0.01485509	     -0.00607708	      0.00244771	      0.02143859	     -0.01772482	     -0.00595048	      0.01287160	     -0.00544405	     -0.01240737	      0.02717806	     -0.03042761	     -0.02329548	      0.01439087	     -0.00730094	     -0.01544591	      0.03139825	     -0.03802396
      0.56666667	     -0.32082850	      0.13588781	     -0.13588781	      0.32082850	     -0.06496124	      0.52499393	      0.23598116	     -0.23598116	     -0.52499393	      0.06496124	     99.60412888	     75.95899813	     -1.73842000	    -26.37615021	     30.47899604	     53.68705579	      0.26509369	      0.24783734	      0.30224914	      0.12391867	     32.32470526	    -19.27280352	      4.74160363	     -3.58394790	     -6.95629654	     13.64458299	     11.64172502	    -16.88583380	    -16.24080062	      4.33737323	     13.30810845	     13.05698818	    -19.71873027	     -4.05545615	      9.15741516	     19.42489110	     -9.73205388	    -14.41692782	    -11.26257899	      5.06868480	      0.00090815	     -0.03109336	     -0.00486269	      0.01638569	     -0.01847977	     -0.00587758	      0.00358313	     -0.06746504	     -0.00437478	      0.00918714	     -0.18318374	     -0.00041304	     -0.00644243	      0.00196593	     -0.00000260	     -0.00030501	     -0.00012200	     -0.00061002	     -0.00039041	     -0.00117124	     -0.00065882	     -0.00001117	     -0.00022763	     -0.00027315	      0.00248977	      0.00873529	      0.00607672	     -0.00814450	      0.01966496	     -0.01865217	      0.00248977	      0.00873529	      0.00607672	      0.00054859	      0.01823017	     -0.00957928	      0.00394006	      0.00485759	      0.01594834	      0.00000000	      0.00771598	      0.00000000	     -0.00713171	     -0.03295779	     -0.00636182	      0.01718374	     -0.00063537	     -0.00581701	     -0.00088619	      0.01485422	     -0.00607672	      0.00244757	      0.02143734	     -0.01772378	     -0.00595013	      0.01287084	     -0.00544373	     -0.01240665	      0.02717646	     -0.03042582	     -0.02329411	      0.01439002	     -0.00730051	     -0.01544501	      0.03139641	     -0.03802173
      0.60000000	     -0.32333691	      0.13695025	     -0.13695025	      0.32333691	     -0.06546915	      0.52909862	      0.23782619	     -0.23782619	     -0.52909862	      0.06546915	     99.03682666	     76.55288777	     -1.72851871	    -23.46206663	     30.28736030	     50.09668084	      0.27873056	      0.25390562	      0.31468648	      0.12695281	     31.35700964	    -18.67703863	      4.72575457	     -3.98620329	     -6.19418948	     13.58717274	     11.82261602	    -17.67313887	    -16.06816380	      4.30179967	     13.08545542	     13.06336304	    -20.20369465	     -4.13144769	      9.13820611	     19.89678455	    -11.19400883	    -14.41847060	    -10.57236449	      5.04941399	      0.00090181	     -0.03107139	     -0.00485915	      0.01647669	     -0.01842771	     -0.00632075	      0.00384842	     -0.06729350	     -0.00408556	      0.00881249	     -0.18327056	     -0.00041972	     -0.00601159	      0.00180669	      0.00004632	     -0.00031376	     -0.00012551	     -0.00062753	     -0.00040162	     -0.00120485	     -0.00067773	     -0.00001021	     -0.00023768	     -0.00028522	      0.00250924	      0.00880359	      0.00612424	     -0.00820818	      0.01981871	     -0.01879800	      0.00250924	      0.00880359	      0.00612424	      0.00055288	      0.01837271	     -0.00965418	      0.00396252	      0.00489556	      0.01600318	      0.00000000	      0.00783797	      0.00000000	     -0.00718747	     -0.03321548	     -0.00646309	      0.01569392	     -0.00054057	     -0.00459214	     -0.00089312	      0.01497036	     -0.00612424	      0.00246671	      0.02160494	     -0.01786236	     -0.00599665	      0.01297147	     -0.00548629	     -0.01250365	      0.02738895	     -0.03066371	     -0.02347624	      0.01450253	     -0.00735759	     -0.01556577	      0.03164189	     -0.03831901
      0.63333333	     -0.32330139	      0.13693521	     -0.13693521	      0.32330139	     -0.06546196	      0.52904050	      0.23780006	     -0.23780006	     -0.52904050	      0.06546196	     99.03125145	     76.54447803	     -1.72842140	    -23.46271662	     30.28024120	     50.09683216	      0.27872172	      0.25392550	      0.31467823	      0.12696275	     31.35695462	    -18.67726976	      4.72567821	     -3.98618906	     -6.19351208	     13.58710044	     11.82277263	    -17.67294165	    -16.06713830	      4.30183330	     13.08570293	     13.06344603	    -20.20297694	     -4.13156722	      9.13858254	     19.89680783	    -11.19399865	    -14.41839545	    -10.57240242	      5.04941063	      0.00090158	     -0.03107058	     -0.00485902	      0.01647666	     -0.01842578	     -0.00632071	      0.00384841	     -0.06729351	     -0.00408557	      0.00881251	     -0.18327055	     -0.00041971	     -0.00601161	      0.00180670	      0.00004631	     -0.00031380	     -0.00012552	     -0.00062760	     -0.00040166	     -0.00120499	     -0.00067780	     -0.00001021	     -0.00023767	     -0.00028520	      0.00250896	      0.00880262	      0.00612356	     -0.00820728	      0.01981653	     -0.01879594	      0.00250896	      0.00880262	      0.00612356	      0.00055282	      0.01837069	     -0.00965312	      0.00396220	      0.00489503	      0.01600241	      0.00000000	      0.00783623	      0.00000000	     -0.00718668	     -0.03321183	     -0.00646165	      0.01569424	     -0.00054060	     -0.00459243	     -0.00089302	      0.01496871	     -0.00612356	      0.00246644	      0.02160257	     -0.01786039	     -0.00599599	      0.01297005	     -0.00548569	     -0.01250228	      0.02738594	     -0.03066034	     -0.02347366	      0.01450094	     -0.00735678	     -0.01556406	      0.03163841	     -0.03831480
      0.66666667	     -0.32464619	      0.13750480	     -0.13750480	      0.32464619	     -0.06573425	      0.53124108	      0.23878921	     -0.23878921	     -0.53124108	      0.06573425	     98.84468524	     76.86287100	     -1.72516521	    -21.95370654	     29.86566472	     46.81349658	      0.26695580	      0.20976076	      0.30396594	      0.10488038	     30.54401233	    -18.03324453	      4.95961821	     -6.06964251	     -6.27956006	     13.65966125	     14.05224397	    -18.27129574	    -17.27526554	      4.66903403	     15.05712912	     16.08266906	    -21.08829252	     -4.13455427	      8.50308331	     22.77094656	    -13.08037518	    -14.40051649	    -11.32426016	      5.09622936	      0.00088786	     -0.03102306	     -0.00485137	      0.01653407	     -0.01831315	     -0.00671015	      0.00409101	     -0.06713664	     -0.00382108	      0.00847337	     -0.18334674	     -0.00041732	     -0.00561761	      0.00166457	      0.00008493	     -0.00025146	     -0.00010058	     -0.00050292	     -0.00032187	     -0.00096561	     -0.00054316	     -0.00000926	     -0.00024531	     -0.00029437	      0.00251940	      0.00883924	      0.00614903	     -0.00824141	      0.01989896	     -0.01887412	      0.00251940	      0.00883924	      0.00614903	      0.00055512	      0.01844710	     -0.00969327	      0.00397419	      0.00491539	      0.01603146	      0.00000000	      0.00790203	      0.00000000	     -0.00721658	     -0.03334997	     -0.00651626	      0.01487812	     -0.00049269	     -0.00400609	     -0.00089673	      0.01503097	     -0.00614903	      0.00247669	      0.02169243	     -0.01793469	     -0.00602093	      0.01302400	     -0.00550851	     -0.01255428	      0.02749985	     -0.03078788	     -0.02357130	      0.01456126	     -0.00738738	     -0.01562880	      0.03177001	     -0.03847417
